PathFileType  4	(X/Y/Z) C:\Users\antoi\Documents\MyRepositories\mobilecap\ResultsAnalysis
DataRate	CameraRate	NumFrames	NumMarkers	Units	OrigDataRate	OrigDataStartFrame	OrigNumFrames
100.0	100.0	4	51	mm	100.0	506	1349
Frame#	Time	r_knee			r_shank_antsup			r_ankle			r_calc			r_5meta			r_toe			L_knee			L_shank_antsup			L_ankle			L_calc			L_5meta			L_toe			r_sh2			r_sh3			r_sh4			L_sh2			L_sh3			r_thigh1			r_thigh2			r_thigh3			r_thigh4			r_thigh5			L_thigh1			L_thigh2			L_thigh3			L_thigh4			r.ASIS			r.PSIS			L.ASIS			L.PSIS			C7			R_Shoulder			L_Shoulder			R_Sternum			L_Sternum			R_humerus			R_elbow_med			R_elbow_lat			R_forearm			R_wrist_radius			R_wrist_ulna			L_humerus			L_elbow_med			L_elbow_lat			L_forearm			L_wrist_radius			L_wrist_ulna			R_HJC			L_HJC			R_HJC_reg			L_HJC_reg			
		X1	Y1	Z1	X2	Y2	Z2	X3	Y3	Z3	X4	Y4	Z4	X5	Y5	Z5	X6	Y6	Z6	X7	Y7	Z7	X8	Y8	Z8	X9	Y9	Z9	X10	Y10	Z10	X11	Y11	Z11	X12	Y12	Z12	X13	Y13	Z13	X14	Y14	Z14	X15	Y15	Z15	X16	Y16	Z16	X17	Y17	Z17	X18	Y18	Z18	X19	Y19	Z19	X20	Y20	Z20	X21	Y21	Z21	X22	Y22	Z22	X23	Y23	Z23	X24	Y24	Z24	X25	Y25	Z25	X26	Y26	Z26	X27	Y27	Z27	X28	Y28	Z28	X29	Y29	Z29	X30	Y30	Z30	X31	Y31	Z31	X32	Y32	Z32	X33	Y33	Z33	X34	Y34	Z34	X35	Y35	Z35	X36	Y36	Z36	X37	Y37	Z37	X38	Y38	Z38	X39	Y39	Z39	X40	Y40	Z40	X41	Y41	Z41	X42	Y42	Z42	X43	Y43	Z43	X44	Y44	Z44	X45	Y45	Z45	X46	Y46	Z46	X47	Y47	Z47	X48	Y48	Z48	X49	Y49	Z49	X50	Y50	Z50	X51	Y51	Z51	

506	5.05000000	-244.75845	557.92381	-450.34639	-211.71169	438.20619	-440.87428	-293.95230	100.08021	-426.46375	-350.83501	65.51015	-476.77424	-168.47416	35.95199	-353.79976	-121.11485	59.06625	-420.39980	-264.09976	546.88329	-872.48251	-217.62921	445.90663	-876.81679	-292.30344	98.61740	-898.46586	-348.87310	67.39768	-848.10131	-154.38854	33.84432	-950.60128	-116.27009	58.21220	-885.22998	-206.70458	322.44799	-447.66000	-281.95500	431.70904	-407.23380	-272.44419	316.04514	-394.53266	-304.11116	450.10056	-902.38970	-287.17250	330.95423	-930.19214	-134.54640	787.98501	-471.75726	-141.47849	674.20618	-473.79078	-181.16234	653.07611	-423.41506	-233.34327	789.08622	-414.78573	-234.28286	670.49412	-422.38962	-184.26129	801.63212	-872.92045	-178.16669	664.69260	-878.31434	-295.93423	795.86709	-889.28121	-288.18924	657.47177	-887.33662	-145.25659	1048.26060	-519.70115	-346.92331	1105.31337	-596.89863	-157.12446	1037.77976	-785.48981	-352.54957	1105.38567	-695.69180	-278.60451	1586.59404	-656.77706	-179.57674	1530.40292	-470.30763	-184.32992	1548.01144	-829.98237	-128.99206	1519.37878	-635.74639	-131.84567	1517.00633	-677.78245	-124.30038	1374.02886	-402.35556	-131.44159	1142.77490	-448.25519	-99.66036	1175.01207	-366.82281	-4.85813	1283.52171	-449.50721	68.57662	1344.48169	-512.18193	103.29338	1320.51069	-509.62119	-132.04048	1392.24937	-915.39264	-147.40321	1157.11989	-899.79570	-96.58895	1200.31191	-957.67509	-32.28979	1291.64593	-840.07299	49.47672	1344.64501	-779.27389	85.46646	1316.70280	-794.00221	-238.61615	978.69146	-549.21369	-247.16351	960.62379	-761.66735	-228.38778	972.38847	-552.93145	-238.37998	972.51848	-728.37761	
507	5.06000000	-244.14353	557.88404	-450.40005	-211.30962	438.14652	-440.91778	-293.88568	100.11324	-426.45003	-350.82600	65.52481	-476.74162	-168.48187	35.90325	-353.78258	-121.14166	59.04712	-420.35411	-264.44214	546.94476	-872.12332	-218.16603	446.07461	-876.55980	-292.33872	98.64649	-898.44471	-348.93293	67.21967	-847.92566	-154.34994	33.87983	-950.61060	-116.26684	58.24115	-885.21048	-206.41316	322.40053	-447.72123	-281.32565	431.76841	-407.22727	-272.01132	316.45499	-393.97459	-304.53378	450.15318	-902.20289	-287.38537	331.03060	-930.03608	-133.57607	787.95198	-471.71198	-140.63655	674.23724	-473.68695	-180.24170	653.01990	-423.46252	-232.32401	789.06424	-414.86266	-233.52825	670.67662	-422.34401	-183.34004	801.53975	-872.96555	-177.82528	664.40497	-878.22135	-295.10054	795.96280	-889.11427	-287.86511	657.60265	-887.07775	-144.41844	1048.43591	-519.35611	-346.18906	1104.64466	-597.00800	-155.87835	1038.03765	-785.69789	-351.70116	1104.75499	-695.78856	-279.31719	1586.52450	-656.59566	-180.26165	1529.94823	-470.11125	-185.27461	1547.73281	-829.83638	-129.90961	1519.86974	-634.75850	-132.40723	1516.92430	-677.69341	-124.90077	1373.38993	-402.28891	-132.11062	1142.22122	-448.55958	-100.02821	1174.35809	-367.09186	-5.36117	1283.03226	-449.77635	67.98108	1344.09493	-512.42453	102.74070	1320.10609	-509.82384	-132.98266	1391.87517	-915.35288	-147.91624	1156.92797	-899.80031	-97.23509	1199.93898	-957.60828	-32.91815	1291.42365	-839.85630	48.85890	1344.47346	-779.28568	84.86393	1316.58366	-793.85622	-237.41163	978.46318	-549.27658	-245.61864	960.49348	-761.75209	-227.18036	972.05334	-552.82091	-236.99074	972.25121	-728.62906	
508	5.07000000	-243.33180	557.96310	-450.28962	-210.73422	437.81972	-441.30107	-293.82834	100.18071	-426.47793	-350.79019	65.56758	-476.70599	-168.47059	35.85943	-353.76880	-121.13645	59.05859	-420.30027	-264.59798	547.05401	-871.97750	-218.59699	446.20028	-876.16889	-292.35693	98.67826	-898.42713	-348.96162	67.07941	-847.76564	-154.35073	33.93531	-950.58637	-116.25052	58.27133	-885.15984	-206.03968	322.35396	-447.70801	-280.75543	431.98552	-407.20766	-271.55868	316.98007	-393.00926	-304.87541	450.18100	-902.03230	-287.62144	331.09118	-929.99249	-132.53420	788.10607	-471.53348	-139.72531	674.35886	-473.44323	-179.31244	653.10024	-423.47657	-231.40461	789.09292	-414.85549	-232.65542	670.72754	-422.41049	-182.44412	801.39097	-872.75939	-177.46198	664.23929	-878.11765	-294.29551	796.07470	-889.03143	-287.52559	657.70909	-886.84196	-143.74132	1048.62900	-519.01102	-345.60202	1103.99022	-597.04743	-154.73487	1038.23112	-785.65875	-350.96332	1104.28533	-695.72348	-279.94305	1586.46969	-656.28193	-180.89185	1529.47370	-469.91665	-186.12848	1547.42165	-829.77223	-130.56787	1519.76829	-634.41469	-133.07019	1516.84389	-677.63560	-125.40569	1372.74736	-402.18257	-132.79577	1141.58642	-448.82655	-100.41871	1173.72429	-367.45487	-5.75047	1282.52434	-449.94565	67.48045	1343.73986	-512.63725	102.34173	1319.67497	-510.11413	-133.85610	1391.50089	-915.29712	-148.36136	1156.75822	-899.87648	-97.81583	1199.59204	-957.53190	-33.43647	1291.27208	-839.90545	48.28752	1344.15613	-779.22088	84.33196	1316.41960	-793.69167	-236.39664	978.27440	-549.20614	-244.24990	960.38198	-761.70162	-226.08686	971.57374	-552.79862	-235.65004	972.10043	-728.80838	
509	5.08000000	-242.43382	558.05132	-450.14877	-210.09371	437.31783	-441.91648	-293.79701	100.20523	-426.53082	-350.74925	65.63464	-476.70118	-168.44745	35.86041	-353.77551	-121.10452	59.06679	-420.26669	-264.61009	547.18481	-871.93172	-218.83907	446.24957	-875.74942	-292.36466	98.70423	-898.41849	-348.93029	67.09607	-847.72787	-154.38605	34.00521	-950.54081	-116.22962	58.29985	-885.10549	-205.62687	322.28471	-447.62065	-280.24246	432.05890	-407.21044	-271.12260	317.17808	-392.38321	-305.06951	450.21140	-901.91795	-287.81022	331.12612	-929.93435	-131.50916	788.26176	-471.26053	-138.79406	674.44438	-473.34475	-178.48959	653.17574	-423.49496	-230.53318	789.10378	-414.78214	-231.71263	670.58161	-422.61563	-181.57806	801.18951	-872.52960	-177.06725	664.11196	-877.92549	-293.49134	796.27384	-889.09375	-287.17174	657.83932	-886.60928	-143.16831	1048.83121	-518.74727	-345.13991	1103.42799	-597.11297	-153.70935	1038.31629	-785.28978	-350.30896	1103.65220	-695.86741	-280.56080	1586.36082	-655.88635	-181.53553	1529.06953	-469.70957	-186.91618	1547.18400	-829.86014	-130.89680	1519.00150	-634.98701	-133.84093	1516.79179	-677.56823	-125.87278	1372.13980	-402.19363	-133.21401	1141.13674	-449.08949	-100.81164	1173.09639	-367.87342	-6.03466	1282.02915	-450.11944	67.08455	1343.36536	-512.83669	102.04214	1319.26639	-510.50388	-134.62854	1391.16158	-915.26460	-148.76494	1156.44665	-899.72754	-98.34516	1199.33065	-957.44934	-33.86529	1291.12573	-840.12906	47.79281	1343.79124	-779.13047	83.89083	1316.20160	-793.56334	-235.54129	978.13300	-549.04083	-242.94644	960.12965	-761.54283	-225.21581	971.52178	-552.63591	-234.42625	971.92162	-728.58623	
